<?xml version="1.0" encoding="utf-8"?>
<svg viewBox="326.2225646972656 541.5200805664062 145.39730834960938 37.44940185546875" width="145.39730834960938" height="37.44940185546875" xmlns="http://www.w3.org/2000/svg">
  <defs>
    <clipPath id="clipPath18" clipPathUnits="userSpaceOnUse">
      <path id="path16" d="M 0,792 H 612 V 0 H 0 Z"/>
    </clipPath>
  </defs>
  <g transform="matrix(1, 0, 0, 1, 0, 0)">
    <g clip-path="url(#clipPath18)" id="g14" transform="matrix(1.333333, 0, 0, -1.333333, 0, 1056)">
      <path id="path20" style="fill:#ffffff;fill-opacity:1;fill-rule:nonzero;stroke:none" d="m 278.689,358.129 c -0.357,-0.195 -1.447,-0.356 -2.219,-0.356 -2.078,0 -3.208,1.03 -3.208,3.323 0,2.146 0.963,3.625 3.388,3.625 0.611,0 1.553,-0.153 1.941,-0.293 v -1.805 h -0.926 l -0.062,0.645 c -0.064,0.603 -0.396,0.812 -1.02,0.812 -0.98,0 -1.961,-0.49 -1.961,-2.879 0,-1.605 0.335,-2.785 1.913,-2.785 0.726,0 1.185,0.199 1.185,0.988 v 0.383 0.162 h 0.969 z"/>
      <path id="path22" style="fill:none;stroke:#ffffff;stroke-width:0.33199999;stroke-linecap:butt;stroke-linejoin:miter;stroke-miterlimit:4;stroke-dasharray:none;stroke-opacity:1" d="m 278.689,358.129 c -0.357,-0.195 -1.447,-0.356 -2.219,-0.356 -2.078,0 -3.208,1.03 -3.208,3.323 0,2.146 0.963,3.625 3.388,3.625 0.611,0 1.553,-0.153 1.941,-0.293 v -1.805 h -0.926 l -0.062,0.645 c -0.064,0.603 -0.396,0.812 -1.02,0.812 -0.98,0 -1.961,-0.49 -1.961,-2.879 0,-1.605 0.335,-2.785 1.913,-2.785 0.726,0 1.185,0.199 1.185,0.988 v 0.383 0.162 h 0.969 z"/>
      <path id="path24" style="fill:#ffffff;fill-opacity:1;fill-rule:nonzero;stroke:none" d="m 283.945,358.416 c 1.212,0 1.744,0.873 1.744,2.83 0,1.957 -0.532,2.834 -1.744,2.834 -1.224,0 -1.746,-0.877 -1.746,-2.834 0,-1.957 0.522,-2.83 1.746,-2.83 m 0,6.305 c 2.121,0 3.092,-1.412 3.092,-3.475 0,-2.135 -0.971,-3.473 -3.092,-3.473 -2.115,0 -3.098,1.338 -3.098,3.473 0,2.063 0.983,3.475 3.098,3.475"/>
      <path id="path26" style="fill:none;stroke:#ffffff;stroke-width:0.33199999;stroke-linecap:butt;stroke-linejoin:miter;stroke-miterlimit:4;stroke-dasharray:none;stroke-opacity:1" d="m 283.945,358.416 c 1.212,0 1.744,0.873 1.744,2.83 0,1.957 -0.532,2.834 -1.744,2.834 -1.224,0 -1.746,-0.877 -1.746,-2.834 0,-1.957 0.522,-2.83 1.746,-2.83 z m 0,6.305 c 2.121,0 3.092,-1.412 3.092,-3.475 0,-2.135 -0.971,-3.473 -3.092,-3.473 -2.115,0 -3.098,1.338 -3.098,3.473 0,2.063 0.983,3.475 3.098,3.475"/>
      <path id="path28" style="fill:#ffffff;fill-opacity:1;fill-rule:nonzero;stroke:none" d="m 288.875,364.537 h 3.482 v -0.553 h -0.691 c -0.374,0 -0.43,-0.07 -0.43,-0.41 V 358.6 h 1.792 c 0.339,0 0.522,0.095 0.538,1.492 h 0.913 v -2.133 h -5.604 v 0.551 h 0.63 c 0.379,0 0.438,0.068 0.438,0.414 v 4.65 c 0,0.34 -0.059,0.41 -0.438,0.41 h -0.63 z"/>
      <path id="path30" style="fill:none;stroke:#ffffff;stroke-width:0.33199999;stroke-linecap:butt;stroke-linejoin:miter;stroke-miterlimit:4;stroke-dasharray:none;stroke-opacity:1" d="m 288.875,364.537 h 3.482 v -0.553 h -0.691 c -0.374,0 -0.43,-0.07 -0.43,-0.41 V 358.6 h 1.792 c 0.339,0 0.522,0.095 0.538,1.492 h 0.913 v -2.133 h -5.604 v 0.551 h 0.63 c 0.379,0 0.438,0.068 0.438,0.414 v 4.65 c 0,0.34 -0.059,0.41 -0.438,0.41 h -0.63 z"/>
      <path id="path32" style="fill:#ffffff;fill-opacity:1;fill-rule:nonzero;stroke:none" d="m 296.14,364.537 h 3.49 v -0.553 h -0.695 c -0.367,0 -0.43,-0.07 -0.43,-0.41 V 358.6 h 1.787 c 0.343,0 0.535,0.095 0.546,1.492 h 0.907 v -2.133 h -5.605 v 0.551 h 0.641 c 0.365,0 0.427,0.068 0.427,0.414 v 4.65 c 0,0.34 -0.062,0.41 -0.427,0.41 h -0.641 z"/>
      <path id="path34" style="fill:none;stroke:#ffffff;stroke-width:0.33199999;stroke-linecap:butt;stroke-linejoin:miter;stroke-miterlimit:4;stroke-dasharray:none;stroke-opacity:1" d="m 296.14,364.537 h 3.49 v -0.553 h -0.695 c -0.367,0 -0.43,-0.07 -0.43,-0.41 V 358.6 h 1.787 c 0.343,0 0.535,0.095 0.546,1.492 h 0.907 v -2.133 h -5.605 v 0.551 h 0.641 c 0.365,0 0.427,0.068 0.427,0.414 v 4.65 c 0,0.34 -0.062,0.41 -0.427,0.41 h -0.641 z"/>
      <path id="path36" style="fill:#ffffff;fill-opacity:1;fill-rule:nonzero;stroke:none" d="m 303.403,364.537 h 5.738 v -1.641 h -0.842 c -0.041,0.975 -0.146,1.004 -0.791,1.004 h -1.802 v -2.248 h 0.716 c 0.42,0 0.532,-0.06 0.532,0.719 h 0.771 v -2.041 h -0.771 c 0,0.797 -0.073,0.733 -0.59,0.733 h -0.658 V 358.6 h 1.771 c 0.857,0 0.883,0.037 0.934,1.076 h 0.851 v -1.717 h -5.859 v 0.551 h 0.637 c 0.371,0 0.427,0.068 0.427,0.414 v 4.65 c 0,0.34 -0.056,0.41 -0.427,0.41 h -0.637 z"/>
      <path id="path38" style="fill:none;stroke:#ffffff;stroke-width:0.33199999;stroke-linecap:butt;stroke-linejoin:miter;stroke-miterlimit:4;stroke-dasharray:none;stroke-opacity:1" d="m 303.403,364.537 h 5.738 v -1.641 h -0.842 c -0.041,0.975 -0.146,1.004 -0.791,1.004 h -1.802 v -2.248 h 0.716 c 0.42,0 0.532,-0.06 0.532,0.719 h 0.771 v -2.041 h -0.771 c 0,0.797 -0.073,0.733 -0.59,0.733 h -0.658 V 358.6 h 1.771 c 0.857,0 0.883,0.037 0.934,1.076 h 0.851 v -1.717 h -5.859 v 0.551 h 0.637 c 0.371,0 0.427,0.068 0.427,0.414 v 4.65 c 0,0.34 -0.056,0.41 -0.427,0.41 h -0.637 z"/>
      <path id="path40" style="fill:#ffffff;fill-opacity:1;fill-rule:nonzero;stroke:none" d="m 314.557,360.828 h 3.121 v -0.555 h -0.381 c -0.375,0 -0.433,-0.072 -0.433,-0.423 v -1.643 c -0.717,-0.248 -1.641,-0.434 -2.367,-0.434 -2.094,0 -3.264,0.963 -3.264,3.28 0,2.129 1.002,3.668 3.486,3.668 0.764,0 1.451,-0.104 2.086,-0.293 v -1.733 h -0.969 c -0.06,1.065 -0.24,1.385 -1.125,1.385 -1.3,0 -2.119,-0.719 -2.119,-2.996 0,-2.074 0.746,-2.668 2.043,-2.668 0.301,0 0.643,0.086 0.996,0.221 v 1.213 c 0,0.351 -0.056,0.423 -0.433,0.423 h -0.641 z"/>
      <path id="path42" style="fill:none;stroke:#ffffff;stroke-width:0.33199999;stroke-linecap:butt;stroke-linejoin:miter;stroke-miterlimit:4;stroke-dasharray:none;stroke-opacity:1" d="m 314.557,360.828 h 3.121 v -0.555 h -0.381 c -0.375,0 -0.433,-0.072 -0.433,-0.423 v -1.643 c -0.717,-0.248 -1.641,-0.434 -2.367,-0.434 -2.094,0 -3.264,0.963 -3.264,3.28 0,2.129 1.002,3.668 3.486,3.668 0.764,0 1.451,-0.104 2.086,-0.293 v -1.733 h -0.969 c -0.06,1.065 -0.24,1.385 -1.125,1.385 -1.3,0 -2.119,-0.719 -2.119,-2.996 0,-2.074 0.746,-2.668 2.043,-2.668 0.301,0 0.643,0.086 0.996,0.221 v 1.213 c 0,0.351 -0.056,0.423 -0.433,0.423 h -0.641 z"/>
      <path id="path44" style="fill:#ffffff;fill-opacity:1;fill-rule:nonzero;stroke:none" d="M 319.262,364.537 H 325 v -1.641 h -0.841 c -0.028,0.975 -0.141,1.004 -0.785,1.004 h -1.811 v -2.248 h 0.723 c 0.423,0 0.527,-0.06 0.527,0.719 h 0.771 v -2.041 h -0.771 c 0,0.797 -0.061,0.733 -0.584,0.733 h -0.666 V 358.6 h 1.777 c 0.86,0 0.887,0.037 0.94,1.076 h 0.84 v -1.717 h -5.858 v 0.551 h 0.635 c 0.383,0 0.436,0.068 0.436,0.414 v 4.65 c 0,0.34 -0.053,0.41 -0.436,0.41 h -0.635 z"/>
      <path id="path46" style="fill:none;stroke:#ffffff;stroke-width:0.33199999;stroke-linecap:butt;stroke-linejoin:miter;stroke-miterlimit:4;stroke-dasharray:none;stroke-opacity:1" d="M 319.262,364.537 H 325 v -1.641 h -0.841 c -0.028,0.975 -0.141,1.004 -0.785,1.004 h -1.811 v -2.248 h 0.723 c 0.423,0 0.527,-0.06 0.527,0.719 h 0.771 v -2.041 h -0.771 c 0,0.797 -0.061,0.733 -0.584,0.733 h -0.666 V 358.6 h 1.777 c 0.86,0 0.887,0.037 0.94,1.076 h 0.84 v -1.717 h -5.858 v 0.551 h 0.635 c 0.383,0 0.436,0.068 0.436,0.414 v 4.65 c 0,0.34 -0.053,0.41 -0.436,0.41 h -0.635 z"/>
      <path id="path48" style="fill:#ffffff;fill-opacity:1;fill-rule:nonzero;stroke:none" d="m 257.171,374.272 -0.198,-4.438 c -1.306,-0.365 -2.827,-0.512 -4.806,-0.512 -3.848,0 -7.5,1.93 -7.5,7.669 0,5.802 2.953,8.869 7.767,8.869 1.591,0 3.383,-0.139 4.57,-0.526 v -4.394 h -2.043 c -0.107,2.83 -0.671,3.365 -2.764,3.365 -2.609,0 -4.354,-2.015 -4.354,-7.142 0,-4.142 1.8,-6.29 4.539,-6.29 2.052,0 2.541,0.551 2.658,3.399 z"/>
      <path id="path50" style="fill:none;stroke:#ffffff;stroke-width:0.33000001;stroke-linecap:butt;stroke-linejoin:miter;stroke-miterlimit:4;stroke-dasharray:none;stroke-opacity:1" d="m 257.171,374.272 -0.198,-4.438 c -1.306,-0.365 -2.827,-0.512 -4.806,-0.512 -3.848,0 -7.5,1.93 -7.5,7.669 0,5.802 2.953,8.869 7.767,8.869 1.591,0 3.383,-0.139 4.57,-0.526 v -4.394 h -2.043 c -0.107,2.83 -0.671,3.365 -2.764,3.365 -2.609,0 -4.354,-2.015 -4.354,-7.142 0,-4.142 1.8,-6.29 4.539,-6.29 2.052,0 2.541,0.551 2.658,3.399 z"/>
      <path id="path52" style="fill:#ffffff;fill-opacity:1;fill-rule:nonzero;stroke:none" d="m 264.406,370.799 c 1.733,0 3.269,1.834 3.269,5.969 0,4.136 -1.479,5.971 -3.269,5.971 -1.746,0 -3.281,-1.835 -3.281,-5.971 0,-4.135 1.481,-5.969 3.281,-5.969 m 0,13.493 c 3.968,0 5.901,-3.18 5.901,-7.524 0,-4.528 -1.933,-7.534 -5.901,-7.534 -3.984,0 -5.902,3.006 -5.902,7.534 0,4.344 1.918,7.524 5.902,7.524"/>
      <path id="path54" style="fill:none;stroke:#ffffff;stroke-width:0.33000001;stroke-linecap:butt;stroke-linejoin:miter;stroke-miterlimit:4;stroke-dasharray:none;stroke-opacity:1" d="m 264.406,370.799 c 1.733,0 3.269,1.834 3.269,5.969 0,4.136 -1.479,5.971 -3.269,5.971 -1.746,0 -3.281,-1.835 -3.281,-5.971 0,-4.135 1.481,-5.969 3.281,-5.969 z m 0,13.493 c 3.968,0 5.901,-3.18 5.901,-7.524 0,-4.528 -1.933,-7.534 -5.901,-7.534 -3.984,0 -5.902,3.006 -5.902,7.534 0,4.344 1.918,7.524 5.902,7.524"/>
      <path id="path56" style="fill:#ffffff;fill-opacity:1;fill-rule:nonzero;stroke:none" d="m 278.906,382.495 h 4.755 v -1.077 h -0.235 c -0.488,0 -0.48,-0.136 -0.722,-0.866 L 278.865,369.6 h -2.953 l -4.081,11.358 c -0.213,0.666 -0.51,0.841 -1.042,0.841 h -0.318 v 1.076 h 5.688 v -1.076 h -0.806 c -0.569,0 -0.71,-0.035 -0.71,-0.297 0,-0.197 0.051,-0.395 0.094,-0.544 l 3.138,-9.046 h -0.143 l 2.813,8.446 c 0.107,0.273 0.184,0.485 0.184,0.746 0,0.234 -0.184,0.314 -0.516,0.314 h -1.307 z"/>
      <path id="path58" style="fill:none;stroke:#ffffff;stroke-width:0.33000001;stroke-linecap:butt;stroke-linejoin:miter;stroke-miterlimit:4;stroke-dasharray:none;stroke-opacity:1" d="m 278.906,382.495 h 4.755 v -1.077 h -0.235 c -0.488,0 -0.48,-0.136 -0.722,-0.866 L 278.865,369.6 h -2.953 l -4.081,11.358 c -0.213,0.666 -0.51,0.841 -1.042,0.841 h -0.318 v 1.076 h 5.688 v -1.076 h -0.806 c -0.569,0 -0.71,-0.035 -0.71,-0.297 0,-0.197 0.051,-0.395 0.094,-0.544 l 3.138,-9.046 h -0.143 l 2.813,8.446 c 0.107,0.273 0.184,0.485 0.184,0.746 0,0.234 -0.184,0.314 -0.516,0.314 h -1.307 z"/>
      <path id="path60" style="fill:#ffffff;fill-opacity:1;fill-rule:nonzero;stroke:none" d="m 284.903,381.741 h 10.203 v -3.074 h -1.631 c -0.076,1.767 -0.254,1.806 -1.431,1.806 h -3.171 v -4.056 h 1.255 c 0.768,0 0.974,-0.052 0.974,1.355 h 1.39 v -3.82 h -1.39 c 0,1.45 -0.129,1.406 -1.056,1.406 h -1.173 v -4.288 h 3.101 c 1.579,0 1.63,-0.123 1.713,1.756 h 1.64 v -3.105 h -10.424 v 1.195 h 0.854 c 0.685,0 0.785,0.127 0.785,0.742 v 8.226 c 0,0.62 -0.1,0.755 -0.785,0.755 h -0.854 z"/>
      <path id="path62" style="fill:none;stroke:#ffffff;stroke-width:0.33000001;stroke-linecap:butt;stroke-linejoin:miter;stroke-miterlimit:4;stroke-dasharray:none;stroke-opacity:1" d="m 284.903,381.741 h 10.203 v -3.074 h -1.631 c -0.076,1.767 -0.254,1.806 -1.431,1.806 h -3.171 v -4.056 h 1.255 c 0.768,0 0.974,-0.052 0.974,1.355 h 1.39 v -3.82 h -1.39 c 0,1.45 -0.129,1.406 -1.056,1.406 h -1.173 v -4.288 h 3.101 c 1.579,0 1.63,-0.123 1.713,1.756 h 1.64 v -3.105 h -10.424 v 1.195 h 0.854 c 0.685,0 0.785,0.127 0.785,0.742 v 8.226 c 0,0.62 -0.1,0.755 -0.785,0.755 h -0.854 z"/>
      <path id="path64" style="fill:#ffffff;fill-opacity:1;fill-rule:nonzero;stroke:none" d="m 307.377,379.884 c 0,0.62 -0.121,0.755 -0.791,0.755 h -1.259 v 1.006 h 6.263 v -1.006 h -0.75 c -0.675,0 -1.547,-0.135 -1.547,-0.755 v -10.163 h -2.837 l -5.594,10.24 h -0.037 v -8.492 c 0,-0.617 0.113,-0.742 0.791,-0.742 h 1.148 v -1.006 h -5.483 v 1.006 h 0.838 c 0.679,0 0.787,0.125 0.787,0.742 v 8.415 c 0,0.62 -0.108,0.755 -0.787,0.755 h -0.838 v 1.006 h 5.157 l 4.906,-9.094 h 0.033 z"/>
      <path id="path66" style="fill:none;stroke:#ffffff;stroke-width:0.33000001;stroke-linecap:butt;stroke-linejoin:miter;stroke-miterlimit:4;stroke-dasharray:none;stroke-opacity:1" d="m 307.377,379.884 c 0,0.62 -0.121,0.755 -0.791,0.755 h -1.259 v 1.006 h 6.263 v -1.006 h -0.75 c -0.675,0 -1.547,-0.135 -1.547,-0.755 v -10.163 h -2.837 l -5.594,10.24 h -0.037 v -8.492 c 0,-0.617 0.113,-0.742 0.791,-0.742 h 1.148 v -1.006 h -5.483 v 1.006 h 0.838 c 0.679,0 0.787,0.125 0.787,0.742 v 8.415 c 0,0.62 -0.108,0.755 -0.787,0.755 h -0.838 v 1.006 h 5.157 l 4.906,-9.094 h 0.033 z"/>
      <path id="path68" style="fill:#ffffff;fill-opacity:1;fill-rule:nonzero;stroke:none" d="m 317.25,380.645 h -0.035 l -1.953,-5.898 h 3.914 z m 1.303,-10 h 0.801 c 0.732,0 0.992,0.091 0.992,0.441 0,0.219 -0.105,0.477 -0.785,2.38 h -4.74 c -0.735,-2.101 -0.817,-2.359 -0.817,-2.534 0,-0.219 0.182,-0.287 0.524,-0.287 h 1.111 v -1.09 h -4.791 v 1.09 c 0.891,0 0.871,0.123 1.041,0.584 l 4.055,11.332 h 3.344 l 3.736,-10.854 c 0.363,-0.971 0.15,-1.062 1.244,-1.062 v -1.09 h -5.715 z"/>
      <path id="path70" style="fill:none;stroke:#ffffff;stroke-width:0.33000001;stroke-linecap:butt;stroke-linejoin:miter;stroke-miterlimit:4;stroke-dasharray:none;stroke-opacity:1" d="m 317.25,380.645 h -0.035 l -1.953,-5.898 h 3.914 z m 1.303,-10 h 0.801 c 0.732,0 0.992,0.091 0.992,0.441 0,0.219 -0.105,0.477 -0.785,2.38 h -4.74 c -0.735,-2.101 -0.817,-2.359 -0.817,-2.534 0,-0.219 0.182,-0.287 0.524,-0.287 h 1.111 v -1.09 h -4.791 v 1.09 c 0.891,0 0.871,0.123 1.041,0.584 l 4.055,11.332 h 3.344 l 3.736,-10.854 c 0.363,-0.971 0.15,-1.062 1.244,-1.062 v -1.09 h -5.715 z"/>
      <path id="path72" style="fill:#ffffff;fill-opacity:1;fill-rule:nonzero;stroke:none" d="m 335.84,381.5 c 0,0.719 -0.138,1.045 -0.908,1.045 h -1.062 v 1.153 h 5.31 v -1.153 h -0.32 c -0.776,0 -0.901,-0.326 -0.901,-1.045 v -12 h -3.162 l -6.406,11.621 h -0.035 V 371.5 c 0,-0.703 0.119,-0.846 0.887,-0.846 h 1.32 V 369.5 h -5.424 v 1.154 h 0.367 c 0.774,0 0.813,0.143 0.813,0.846 v 9.534 c 0,0.719 -0.963,0.767 -1.733,0.767 l -0.48,0.012 v 1.236 h 6.08 l 5.598,-10.317 h 0.056 z"/>
      <path id="path74" style="fill:none;stroke:#ffffff;stroke-width:0.33000001;stroke-linecap:butt;stroke-linejoin:miter;stroke-miterlimit:4;stroke-dasharray:none;stroke-opacity:1" d="m 335.84,381.5 c 0,0.719 -0.138,1.045 -0.908,1.045 h -1.062 v 1.153 h 5.31 v -1.153 h -0.32 c -0.776,0 -0.901,-0.326 -0.901,-1.045 v -12 h -3.162 l -6.406,11.621 h -0.035 V 371.5 c 0,-0.703 0.119,-0.846 0.887,-0.846 h 1.32 V 369.5 h -5.424 v 1.154 h 0.367 c 0.774,0 0.813,0.143 0.813,0.846 v 9.534 c 0,0.719 -0.963,0.767 -1.733,0.767 l -0.48,0.012 v 1.236 h 6.08 l 5.598,-10.317 h 0.056 z"/>
      <path id="path76" style="fill:#ffffff;fill-opacity:1;fill-rule:nonzero;stroke:none" d="m 340.526,385.133 h 13.189 v -5.693 h -1.591 l -0.176,2.874 c -0.108,1.156 -0.467,1.274 -1.959,1.274 h -1.692 v -11.236 c 0,-1.584 0.504,-1.731 1.549,-1.731 h 1.104 v -1.191 h -7.662 v 1.191 h 1.117 c 1.031,0 1.537,0.147 1.537,1.731 v 11.236 h -1.682 c -1.498,0 -1.853,-0.118 -1.959,-1.274 l -0.189,-2.874 h -1.586 z"/>
      <path id="path78" style="fill:none;stroke:#ffffff;stroke-width:0.33000001;stroke-linecap:butt;stroke-linejoin:miter;stroke-miterlimit:4;stroke-dasharray:none;stroke-opacity:1" d="m 340.526,385.133 h 13.189 v -5.693 h -1.591 l -0.176,2.874 c -0.108,1.156 -0.467,1.274 -1.959,1.274 h -1.692 v -11.236 c 0,-1.584 0.504,-1.731 1.549,-1.731 h 1.104 v -1.191 h -7.662 v 1.191 h 1.117 c 1.031,0 1.537,0.147 1.537,1.731 v 11.236 h -1.682 c -1.498,0 -1.853,-0.118 -1.959,-1.274 l -0.189,-2.874 h -1.586 z"/>
    </g>
  </g>
</svg>