<?xml version="1.0" encoding="UTF-8" standalone="no"?>
<svg
   xmlns:dc="http://purl.org/dc/elements/1.1/"
   xmlns:cc="http://creativecommons.org/ns#"
   xmlns:rdf="http://www.w3.org/1999/02/22-rdf-syntax-ns#"
   xmlns:svg="http://www.w3.org/2000/svg"
   xmlns="http://www.w3.org/2000/svg"
   viewBox="0 0 816 1056"
   height="1056"
   width="816"
   xml:space="preserve"
   id="svg2"
   version="1.1"><metadata
     id="metadata8"><rdf:RDF><cc:Work
         rdf:about=""><dc:format>image/svg+xml</dc:format><dc:type
           rdf:resource="http://purl.org/dc/dcmitype/StillImage" /></cc:Work></rdf:RDF></metadata><defs
     id="defs6"><clipPath
       id="clipPath18"
       clipPathUnits="userSpaceOnUse"><path
         id="path16"
         d="M 0,792 H 612 V 0 H 0 Z" /></clipPath><clipPath
       id="clipPath86"
       clipPathUnits="userSpaceOnUse"><path
         id="path84"
         d="m 280.92,446.384 c 0.025,0.125 0.037,0.25 0.037,0.373 0,0.347 -0.1,0.779 -0.235,1.07 6.804,-2.895 17.914,-2.843 18.418,-2.834 0.486,-0.009 11.504,-0.061 18.297,2.834 -0.133,-0.291 -0.281,-0.722 -0.281,-1.068 0,-0.123 0.011,-0.248 0.033,-0.375 0.246,-1.27 1.783,-2.3 4.463,-3.129 -0.91,-1.047 -2.982,-3.986 -2.982,-8.708 0,-3.179 0.949,-7.155 3.878,-11.904 0.002,-0.044 0.013,-0.077 0.013,-0.193 0,-2.559 -0.632,-22.763 -23.497,-30.161 -22.629,7.406 -23.568,27.267 -23.568,30.145 0,0.113 0.011,0.157 0.014,0.197 2.931,4.753 3.928,8.742 3.928,11.924 0,4.719 -2.124,7.631 -3.03,8.674 2.674,0.832 4.267,1.883 4.512,3.155" /></clipPath></defs><g
     transform="matrix(1.3333333,0,0,-1.3333333,0,1056)"
     id="g10"><g
       id="g12"><g
         clip-path="url(#clipPath18)"
         id="g14"><path
           id="path20"
           style="fill:#ffffff;fill-opacity:1;fill-rule:nonzero;stroke:none"
           d="m 278.689,358.129 c -0.357,-0.195 -1.447,-0.356 -2.219,-0.356 -2.078,0 -3.208,1.03 -3.208,3.323 0,2.146 0.963,3.625 3.388,3.625 0.611,0 1.553,-0.153 1.941,-0.293 v -1.805 h -0.926 l -0.062,0.645 c -0.064,0.603 -0.396,0.812 -1.02,0.812 -0.98,0 -1.961,-0.49 -1.961,-2.879 0,-1.605 0.335,-2.785 1.913,-2.785 0.726,0 1.185,0.199 1.185,0.988 v 0.383 0.162 h 0.969 z" /><path
           id="path22"
           style="fill:none;stroke:#ffffff;stroke-width:0.33199999;stroke-linecap:butt;stroke-linejoin:miter;stroke-miterlimit:4;stroke-dasharray:none;stroke-opacity:1"
           d="m 278.689,358.129 c -0.357,-0.195 -1.447,-0.356 -2.219,-0.356 -2.078,0 -3.208,1.03 -3.208,3.323 0,2.146 0.963,3.625 3.388,3.625 0.611,0 1.553,-0.153 1.941,-0.293 v -1.805 h -0.926 l -0.062,0.645 c -0.064,0.603 -0.396,0.812 -1.02,0.812 -0.98,0 -1.961,-0.49 -1.961,-2.879 0,-1.605 0.335,-2.785 1.913,-2.785 0.726,0 1.185,0.199 1.185,0.988 v 0.383 0.162 h 0.969 z" /><path
           id="path24"
           style="fill:#ffffff;fill-opacity:1;fill-rule:nonzero;stroke:none"
           d="m 283.945,358.416 c 1.212,0 1.744,0.873 1.744,2.83 0,1.957 -0.532,2.834 -1.744,2.834 -1.224,0 -1.746,-0.877 -1.746,-2.834 0,-1.957 0.522,-2.83 1.746,-2.83 m 0,6.305 c 2.121,0 3.092,-1.412 3.092,-3.475 0,-2.135 -0.971,-3.473 -3.092,-3.473 -2.115,0 -3.098,1.338 -3.098,3.473 0,2.063 0.983,3.475 3.098,3.475" /><path
           id="path26"
           style="fill:none;stroke:#ffffff;stroke-width:0.33199999;stroke-linecap:butt;stroke-linejoin:miter;stroke-miterlimit:4;stroke-dasharray:none;stroke-opacity:1"
           d="m 283.945,358.416 c 1.212,0 1.744,0.873 1.744,2.83 0,1.957 -0.532,2.834 -1.744,2.834 -1.224,0 -1.746,-0.877 -1.746,-2.834 0,-1.957 0.522,-2.83 1.746,-2.83 z m 0,6.305 c 2.121,0 3.092,-1.412 3.092,-3.475 0,-2.135 -0.971,-3.473 -3.092,-3.473 -2.115,0 -3.098,1.338 -3.098,3.473 0,2.063 0.983,3.475 3.098,3.475" /><path
           id="path28"
           style="fill:#ffffff;fill-opacity:1;fill-rule:nonzero;stroke:none"
           d="m 288.875,364.537 h 3.482 v -0.553 h -0.691 c -0.374,0 -0.43,-0.07 -0.43,-0.41 V 358.6 h 1.792 c 0.339,0 0.522,0.095 0.538,1.492 h 0.913 v -2.133 h -5.604 v 0.551 h 0.63 c 0.379,0 0.438,0.068 0.438,0.414 v 4.65 c 0,0.34 -0.059,0.41 -0.438,0.41 h -0.63 z" /><path
           id="path30"
           style="fill:none;stroke:#ffffff;stroke-width:0.33199999;stroke-linecap:butt;stroke-linejoin:miter;stroke-miterlimit:4;stroke-dasharray:none;stroke-opacity:1"
           d="m 288.875,364.537 h 3.482 v -0.553 h -0.691 c -0.374,0 -0.43,-0.07 -0.43,-0.41 V 358.6 h 1.792 c 0.339,0 0.522,0.095 0.538,1.492 h 0.913 v -2.133 h -5.604 v 0.551 h 0.63 c 0.379,0 0.438,0.068 0.438,0.414 v 4.65 c 0,0.34 -0.059,0.41 -0.438,0.41 h -0.63 z" /><path
           id="path32"
           style="fill:#ffffff;fill-opacity:1;fill-rule:nonzero;stroke:none"
           d="m 296.14,364.537 h 3.49 v -0.553 h -0.695 c -0.367,0 -0.43,-0.07 -0.43,-0.41 V 358.6 h 1.787 c 0.343,0 0.535,0.095 0.546,1.492 h 0.907 v -2.133 h -5.605 v 0.551 h 0.641 c 0.365,0 0.427,0.068 0.427,0.414 v 4.65 c 0,0.34 -0.062,0.41 -0.427,0.41 h -0.641 z" /><path
           id="path34"
           style="fill:none;stroke:#ffffff;stroke-width:0.33199999;stroke-linecap:butt;stroke-linejoin:miter;stroke-miterlimit:4;stroke-dasharray:none;stroke-opacity:1"
           d="m 296.14,364.537 h 3.49 v -0.553 h -0.695 c -0.367,0 -0.43,-0.07 -0.43,-0.41 V 358.6 h 1.787 c 0.343,0 0.535,0.095 0.546,1.492 h 0.907 v -2.133 h -5.605 v 0.551 h 0.641 c 0.365,0 0.427,0.068 0.427,0.414 v 4.65 c 0,0.34 -0.062,0.41 -0.427,0.41 h -0.641 z" /><path
           id="path36"
           style="fill:#ffffff;fill-opacity:1;fill-rule:nonzero;stroke:none"
           d="m 303.403,364.537 h 5.738 v -1.641 h -0.842 c -0.041,0.975 -0.146,1.004 -0.791,1.004 h -1.802 v -2.248 h 0.716 c 0.42,0 0.532,-0.06 0.532,0.719 h 0.771 v -2.041 h -0.771 c 0,0.797 -0.073,0.733 -0.59,0.733 h -0.658 V 358.6 h 1.771 c 0.857,0 0.883,0.037 0.934,1.076 h 0.851 v -1.717 h -5.859 v 0.551 h 0.637 c 0.371,0 0.427,0.068 0.427,0.414 v 4.65 c 0,0.34 -0.056,0.41 -0.427,0.41 h -0.637 z" /><path
           id="path38"
           style="fill:none;stroke:#ffffff;stroke-width:0.33199999;stroke-linecap:butt;stroke-linejoin:miter;stroke-miterlimit:4;stroke-dasharray:none;stroke-opacity:1"
           d="m 303.403,364.537 h 5.738 v -1.641 h -0.842 c -0.041,0.975 -0.146,1.004 -0.791,1.004 h -1.802 v -2.248 h 0.716 c 0.42,0 0.532,-0.06 0.532,0.719 h 0.771 v -2.041 h -0.771 c 0,0.797 -0.073,0.733 -0.59,0.733 h -0.658 V 358.6 h 1.771 c 0.857,0 0.883,0.037 0.934,1.076 h 0.851 v -1.717 h -5.859 v 0.551 h 0.637 c 0.371,0 0.427,0.068 0.427,0.414 v 4.65 c 0,0.34 -0.056,0.41 -0.427,0.41 h -0.637 z" /><path
           id="path40"
           style="fill:#ffffff;fill-opacity:1;fill-rule:nonzero;stroke:none"
           d="m 314.557,360.828 h 3.121 v -0.555 h -0.381 c -0.375,0 -0.433,-0.072 -0.433,-0.423 v -1.643 c -0.717,-0.248 -1.641,-0.434 -2.367,-0.434 -2.094,0 -3.264,0.963 -3.264,3.28 0,2.129 1.002,3.668 3.486,3.668 0.764,0 1.451,-0.104 2.086,-0.293 v -1.733 h -0.969 c -0.06,1.065 -0.24,1.385 -1.125,1.385 -1.3,0 -2.119,-0.719 -2.119,-2.996 0,-2.074 0.746,-2.668 2.043,-2.668 0.301,0 0.643,0.086 0.996,0.221 v 1.213 c 0,0.351 -0.056,0.423 -0.433,0.423 h -0.641 z" /><path
           id="path42"
           style="fill:none;stroke:#ffffff;stroke-width:0.33199999;stroke-linecap:butt;stroke-linejoin:miter;stroke-miterlimit:4;stroke-dasharray:none;stroke-opacity:1"
           d="m 314.557,360.828 h 3.121 v -0.555 h -0.381 c -0.375,0 -0.433,-0.072 -0.433,-0.423 v -1.643 c -0.717,-0.248 -1.641,-0.434 -2.367,-0.434 -2.094,0 -3.264,0.963 -3.264,3.28 0,2.129 1.002,3.668 3.486,3.668 0.764,0 1.451,-0.104 2.086,-0.293 v -1.733 h -0.969 c -0.06,1.065 -0.24,1.385 -1.125,1.385 -1.3,0 -2.119,-0.719 -2.119,-2.996 0,-2.074 0.746,-2.668 2.043,-2.668 0.301,0 0.643,0.086 0.996,0.221 v 1.213 c 0,0.351 -0.056,0.423 -0.433,0.423 h -0.641 z" /><path
           id="path44"
           style="fill:#ffffff;fill-opacity:1;fill-rule:nonzero;stroke:none"
           d="M 319.262,364.537 H 325 v -1.641 h -0.841 c -0.028,0.975 -0.141,1.004 -0.785,1.004 h -1.811 v -2.248 h 0.723 c 0.423,0 0.527,-0.06 0.527,0.719 h 0.771 v -2.041 h -0.771 c 0,0.797 -0.061,0.733 -0.584,0.733 h -0.666 V 358.6 h 1.777 c 0.86,0 0.887,0.037 0.94,1.076 h 0.84 v -1.717 h -5.858 v 0.551 h 0.635 c 0.383,0 0.436,0.068 0.436,0.414 v 4.65 c 0,0.34 -0.053,0.41 -0.436,0.41 h -0.635 z" /><path
           id="path46"
           style="fill:none;stroke:#ffffff;stroke-width:0.33199999;stroke-linecap:butt;stroke-linejoin:miter;stroke-miterlimit:4;stroke-dasharray:none;stroke-opacity:1"
           d="M 319.262,364.537 H 325 v -1.641 h -0.841 c -0.028,0.975 -0.141,1.004 -0.785,1.004 h -1.811 v -2.248 h 0.723 c 0.423,0 0.527,-0.06 0.527,0.719 h 0.771 v -2.041 h -0.771 c 0,0.797 -0.061,0.733 -0.584,0.733 h -0.666 V 358.6 h 1.777 c 0.86,0 0.887,0.037 0.94,1.076 h 0.84 v -1.717 h -5.858 v 0.551 h 0.635 c 0.383,0 0.436,0.068 0.436,0.414 v 4.65 c 0,0.34 -0.053,0.41 -0.436,0.41 h -0.635 z" /><path
           id="path48"
           style="fill:#ffffff;fill-opacity:1;fill-rule:nonzero;stroke:none"
           d="m 257.171,374.272 -0.198,-4.438 c -1.306,-0.365 -2.827,-0.512 -4.806,-0.512 -3.848,0 -7.5,1.93 -7.5,7.669 0,5.802 2.953,8.869 7.767,8.869 1.591,0 3.383,-0.139 4.57,-0.526 v -4.394 h -2.043 c -0.107,2.83 -0.671,3.365 -2.764,3.365 -2.609,0 -4.354,-2.015 -4.354,-7.142 0,-4.142 1.8,-6.29 4.539,-6.29 2.052,0 2.541,0.551 2.658,3.399 z" /><path
           id="path50"
           style="fill:none;stroke:#ffffff;stroke-width:0.33000001;stroke-linecap:butt;stroke-linejoin:miter;stroke-miterlimit:4;stroke-dasharray:none;stroke-opacity:1"
           d="m 257.171,374.272 -0.198,-4.438 c -1.306,-0.365 -2.827,-0.512 -4.806,-0.512 -3.848,0 -7.5,1.93 -7.5,7.669 0,5.802 2.953,8.869 7.767,8.869 1.591,0 3.383,-0.139 4.57,-0.526 v -4.394 h -2.043 c -0.107,2.83 -0.671,3.365 -2.764,3.365 -2.609,0 -4.354,-2.015 -4.354,-7.142 0,-4.142 1.8,-6.29 4.539,-6.29 2.052,0 2.541,0.551 2.658,3.399 z" /><path
           id="path52"
           style="fill:#ffffff;fill-opacity:1;fill-rule:nonzero;stroke:none"
           d="m 264.406,370.799 c 1.733,0 3.269,1.834 3.269,5.969 0,4.136 -1.479,5.971 -3.269,5.971 -1.746,0 -3.281,-1.835 -3.281,-5.971 0,-4.135 1.481,-5.969 3.281,-5.969 m 0,13.493 c 3.968,0 5.901,-3.18 5.901,-7.524 0,-4.528 -1.933,-7.534 -5.901,-7.534 -3.984,0 -5.902,3.006 -5.902,7.534 0,4.344 1.918,7.524 5.902,7.524" /><path
           id="path54"
           style="fill:none;stroke:#ffffff;stroke-width:0.33000001;stroke-linecap:butt;stroke-linejoin:miter;stroke-miterlimit:4;stroke-dasharray:none;stroke-opacity:1"
           d="m 264.406,370.799 c 1.733,0 3.269,1.834 3.269,5.969 0,4.136 -1.479,5.971 -3.269,5.971 -1.746,0 -3.281,-1.835 -3.281,-5.971 0,-4.135 1.481,-5.969 3.281,-5.969 z m 0,13.493 c 3.968,0 5.901,-3.18 5.901,-7.524 0,-4.528 -1.933,-7.534 -5.901,-7.534 -3.984,0 -5.902,3.006 -5.902,7.534 0,4.344 1.918,7.524 5.902,7.524" /><path
           id="path56"
           style="fill:#ffffff;fill-opacity:1;fill-rule:nonzero;stroke:none"
           d="m 278.906,382.495 h 4.755 v -1.077 h -0.235 c -0.488,0 -0.48,-0.136 -0.722,-0.866 L 278.865,369.6 h -2.953 l -4.081,11.358 c -0.213,0.666 -0.51,0.841 -1.042,0.841 h -0.318 v 1.076 h 5.688 v -1.076 h -0.806 c -0.569,0 -0.71,-0.035 -0.71,-0.297 0,-0.197 0.051,-0.395 0.094,-0.544 l 3.138,-9.046 h -0.143 l 2.813,8.446 c 0.107,0.273 0.184,0.485 0.184,0.746 0,0.234 -0.184,0.314 -0.516,0.314 h -1.307 z" /><path
           id="path58"
           style="fill:none;stroke:#ffffff;stroke-width:0.33000001;stroke-linecap:butt;stroke-linejoin:miter;stroke-miterlimit:4;stroke-dasharray:none;stroke-opacity:1"
           d="m 278.906,382.495 h 4.755 v -1.077 h -0.235 c -0.488,0 -0.48,-0.136 -0.722,-0.866 L 278.865,369.6 h -2.953 l -4.081,11.358 c -0.213,0.666 -0.51,0.841 -1.042,0.841 h -0.318 v 1.076 h 5.688 v -1.076 h -0.806 c -0.569,0 -0.71,-0.035 -0.71,-0.297 0,-0.197 0.051,-0.395 0.094,-0.544 l 3.138,-9.046 h -0.143 l 2.813,8.446 c 0.107,0.273 0.184,0.485 0.184,0.746 0,0.234 -0.184,0.314 -0.516,0.314 h -1.307 z" /><path
           id="path60"
           style="fill:#ffffff;fill-opacity:1;fill-rule:nonzero;stroke:none"
           d="m 284.903,381.741 h 10.203 v -3.074 h -1.631 c -0.076,1.767 -0.254,1.806 -1.431,1.806 h -3.171 v -4.056 h 1.255 c 0.768,0 0.974,-0.052 0.974,1.355 h 1.39 v -3.82 h -1.39 c 0,1.45 -0.129,1.406 -1.056,1.406 h -1.173 v -4.288 h 3.101 c 1.579,0 1.63,-0.123 1.713,1.756 h 1.64 v -3.105 h -10.424 v 1.195 h 0.854 c 0.685,0 0.785,0.127 0.785,0.742 v 8.226 c 0,0.62 -0.1,0.755 -0.785,0.755 h -0.854 z" /><path
           id="path62"
           style="fill:none;stroke:#ffffff;stroke-width:0.33000001;stroke-linecap:butt;stroke-linejoin:miter;stroke-miterlimit:4;stroke-dasharray:none;stroke-opacity:1"
           d="m 284.903,381.741 h 10.203 v -3.074 h -1.631 c -0.076,1.767 -0.254,1.806 -1.431,1.806 h -3.171 v -4.056 h 1.255 c 0.768,0 0.974,-0.052 0.974,1.355 h 1.39 v -3.82 h -1.39 c 0,1.45 -0.129,1.406 -1.056,1.406 h -1.173 v -4.288 h 3.101 c 1.579,0 1.63,-0.123 1.713,1.756 h 1.64 v -3.105 h -10.424 v 1.195 h 0.854 c 0.685,0 0.785,0.127 0.785,0.742 v 8.226 c 0,0.62 -0.1,0.755 -0.785,0.755 h -0.854 z" /><path
           id="path64"
           style="fill:#ffffff;fill-opacity:1;fill-rule:nonzero;stroke:none"
           d="m 307.377,379.884 c 0,0.62 -0.121,0.755 -0.791,0.755 h -1.259 v 1.006 h 6.263 v -1.006 h -0.75 c -0.675,0 -1.547,-0.135 -1.547,-0.755 v -10.163 h -2.837 l -5.594,10.24 h -0.037 v -8.492 c 0,-0.617 0.113,-0.742 0.791,-0.742 h 1.148 v -1.006 h -5.483 v 1.006 h 0.838 c 0.679,0 0.787,0.125 0.787,0.742 v 8.415 c 0,0.62 -0.108,0.755 -0.787,0.755 h -0.838 v 1.006 h 5.157 l 4.906,-9.094 h 0.033 z" /><path
           id="path66"
           style="fill:none;stroke:#ffffff;stroke-width:0.33000001;stroke-linecap:butt;stroke-linejoin:miter;stroke-miterlimit:4;stroke-dasharray:none;stroke-opacity:1"
           d="m 307.377,379.884 c 0,0.62 -0.121,0.755 -0.791,0.755 h -1.259 v 1.006 h 6.263 v -1.006 h -0.75 c -0.675,0 -1.547,-0.135 -1.547,-0.755 v -10.163 h -2.837 l -5.594,10.24 h -0.037 v -8.492 c 0,-0.617 0.113,-0.742 0.791,-0.742 h 1.148 v -1.006 h -5.483 v 1.006 h 0.838 c 0.679,0 0.787,0.125 0.787,0.742 v 8.415 c 0,0.62 -0.108,0.755 -0.787,0.755 h -0.838 v 1.006 h 5.157 l 4.906,-9.094 h 0.033 z" /><path
           id="path68"
           style="fill:#ffffff;fill-opacity:1;fill-rule:nonzero;stroke:none"
           d="m 317.25,380.645 h -0.035 l -1.953,-5.898 h 3.914 z m 1.303,-10 h 0.801 c 0.732,0 0.992,0.091 0.992,0.441 0,0.219 -0.105,0.477 -0.785,2.38 h -4.74 c -0.735,-2.101 -0.817,-2.359 -0.817,-2.534 0,-0.219 0.182,-0.287 0.524,-0.287 h 1.111 v -1.09 h -4.791 v 1.09 c 0.891,0 0.871,0.123 1.041,0.584 l 4.055,11.332 h 3.344 l 3.736,-10.854 c 0.363,-0.971 0.15,-1.062 1.244,-1.062 v -1.09 h -5.715 z" /><path
           id="path70"
           style="fill:none;stroke:#ffffff;stroke-width:0.33000001;stroke-linecap:butt;stroke-linejoin:miter;stroke-miterlimit:4;stroke-dasharray:none;stroke-opacity:1"
           d="m 317.25,380.645 h -0.035 l -1.953,-5.898 h 3.914 z m 1.303,-10 h 0.801 c 0.732,0 0.992,0.091 0.992,0.441 0,0.219 -0.105,0.477 -0.785,2.38 h -4.74 c -0.735,-2.101 -0.817,-2.359 -0.817,-2.534 0,-0.219 0.182,-0.287 0.524,-0.287 h 1.111 v -1.09 h -4.791 v 1.09 c 0.891,0 0.871,0.123 1.041,0.584 l 4.055,11.332 h 3.344 l 3.736,-10.854 c 0.363,-0.971 0.15,-1.062 1.244,-1.062 v -1.09 h -5.715 z" /><path
           id="path72"
           style="fill:#ffffff;fill-opacity:1;fill-rule:nonzero;stroke:none"
           d="m 335.84,381.5 c 0,0.719 -0.138,1.045 -0.908,1.045 h -1.062 v 1.153 h 5.31 v -1.153 h -0.32 c -0.776,0 -0.901,-0.326 -0.901,-1.045 v -12 h -3.162 l -6.406,11.621 h -0.035 V 371.5 c 0,-0.703 0.119,-0.846 0.887,-0.846 h 1.32 V 369.5 h -5.424 v 1.154 h 0.367 c 0.774,0 0.813,0.143 0.813,0.846 v 9.534 c 0,0.719 -0.963,0.767 -1.733,0.767 l -0.48,0.012 v 1.236 h 6.08 l 5.598,-10.317 h 0.056 z" /><path
           id="path74"
           style="fill:none;stroke:#ffffff;stroke-width:0.33000001;stroke-linecap:butt;stroke-linejoin:miter;stroke-miterlimit:4;stroke-dasharray:none;stroke-opacity:1"
           d="m 335.84,381.5 c 0,0.719 -0.138,1.045 -0.908,1.045 h -1.062 v 1.153 h 5.31 v -1.153 h -0.32 c -0.776,0 -0.901,-0.326 -0.901,-1.045 v -12 h -3.162 l -6.406,11.621 h -0.035 V 371.5 c 0,-0.703 0.119,-0.846 0.887,-0.846 h 1.32 V 369.5 h -5.424 v 1.154 h 0.367 c 0.774,0 0.813,0.143 0.813,0.846 v 9.534 c 0,0.719 -0.963,0.767 -1.733,0.767 l -0.48,0.012 v 1.236 h 6.08 l 5.598,-10.317 h 0.056 z" /><path
           id="path76"
           style="fill:#ffffff;fill-opacity:1;fill-rule:nonzero;stroke:none"
           d="m 340.526,385.133 h 13.189 v -5.693 h -1.591 l -0.176,2.874 c -0.108,1.156 -0.467,1.274 -1.959,1.274 h -1.692 v -11.236 c 0,-1.584 0.504,-1.731 1.549,-1.731 h 1.104 v -1.191 h -7.662 v 1.191 h 1.117 c 1.031,0 1.537,0.147 1.537,1.731 v 11.236 h -1.682 c -1.498,0 -1.853,-0.118 -1.959,-1.274 l -0.189,-2.874 h -1.586 z" /><path
           id="path78"
           style="fill:none;stroke:#ffffff;stroke-width:0.33000001;stroke-linecap:butt;stroke-linejoin:miter;stroke-miterlimit:4;stroke-dasharray:none;stroke-opacity:1"
           d="m 340.526,385.133 h 13.189 v -5.693 h -1.591 l -0.176,2.874 c -0.108,1.156 -0.467,1.274 -1.959,1.274 h -1.692 v -11.236 c 0,-1.584 0.504,-1.731 1.549,-1.731 h 1.104 v -1.191 h -7.662 v 1.191 h 1.117 c 1.031,0 1.537,0.147 1.537,1.731 v 11.236 h -1.682 c -1.498,0 -1.853,-0.118 -1.959,-1.274 l -0.189,-2.874 h -1.586 z" /><g
           id="g80"><g
             clip-path="url(#clipPath86)"
             id="g82"><path
               id="path88"
               style="fill:#ffffff;fill-opacity:1;fill-rule:nonzero;stroke:none"
               d="m 311.603,416.744 -3.218,3.371 3.218,3.372 3.218,-3.372 c -1.019,-1.067 -2.097,-2.197 -3.218,-3.371 m 10.227,-3.972 1.79,5.659 0.327,4.383 -2.322,4.427 c 0,0 -0.927,-0.969 -1.601,-1.674 l -3.218,3.37 3.218,3.37 0.371,2.95 -14.269,14.721 -3.161,-0.024 15.464,-15.976 c -0.809,-0.848 -1.911,-2.001 -3.219,-3.37 l -18.665,19.341 -10.42,-0.006 23.881,-24.784 c -1.037,-1.086 -2.115,-2.219 -3.217,-3.371 l -27.039,28.095 -3.243,0.054 28.688,-29.822 c -9.365,-9.81 -24.955,-25.686 -24.955,-25.686 l 1.72,-1.539 24.829,25.557 3.217,-3.373 c -8.692,-9.109 -24.054,-24.744 -24.054,-24.744 l 6.993,-3.576 22.265,22.871 3.347,-3.503 1.199,2.083 -2.95,3.09 3.218,3.372 1.806,-1.895" /></g></g><path
           id="path90"
           style="fill:none;stroke:#ffffff;stroke-width:0.551;stroke-linecap:butt;stroke-linejoin:round;stroke-miterlimit:4;stroke-dasharray:none;stroke-opacity:1"
           d="m 299.095,391.235 c 25.306,8.365 24.43,31.609 24.43,31.609 -7.946,12.302 -1.129,18.447 -0.78,20.648 0.024,0.153 -0.011,0.29 -0.075,0.453 -0.053,0.132 -0.303,0.181 -0.394,0.209 -6.428,1.857 -3.158,3.279 -3.12,4.881 0.004,0.167 0.02,0.317 -0.186,0.428 -0.178,0.098 -0.356,0 -0.437,-0.045 -6.38,-3.65 -19.438,-3.495 -19.438,-3.495 0,0 -13.138,-0.136 -19.48,3.512 -0.104,0.063 -0.285,0.111 -0.428,0.061 -0.139,-0.053 -0.15,-0.193 -0.131,-0.431 0.121,-1.589 3.098,-3.151 -3.272,-4.917 -0.08,-0.022 -0.331,-0.12 -0.382,-0.254 -0.056,-0.13 0.002,-0.298 0.027,-0.44 0.49,-2.374 7.108,-8.146 -0.828,-20.651 0,0 -0.578,-23.451 24.494,-31.568 z" /><path
           id="path92"
           style="fill:#ffffff;fill-opacity:1;fill-rule:nonzero;stroke:none"
           d="m 288.454,428.671 c 0,-0.041 0.268,-0.253 0.268,-0.253 0.052,-0.003 0.432,0.156 0.442,0.161 v -0.001 c 0,-0.046 0.268,-0.357 0.268,-0.357 0.053,-0.02 0.511,0.089 0.524,0.089 -0.001,0 -0.004,0 -0.004,-0.003 0,-0.043 0.178,-0.307 0.178,-0.307 0.068,-0.019 0.246,0.065 0.246,0.065 -0.041,-0.003 0.292,-0.114 0.292,-0.114 -0.003,-0.01 -0.19,-0.384 -0.19,-0.384 0.002,0.002 -0.705,-0.458 -0.705,-0.458 -0.035,-0.051 -0.211,-0.328 -0.211,-0.328 0.203,-0.233 0.651,-0.683 0.651,-1.431 0,-0.577 -0.29,-1.043 -0.883,-1.423 -0.069,-0.043 -0.338,-0.205 -0.338,-0.205 l -0.153,-0.119 c -0.031,-0.056 -0.072,-0.502 -0.072,-0.502 l -0.016,-0.419 -0.019,-0.519 0.057,-0.02 0.236,-0.061 c 0.013,-0.005 0.623,-0.209 0.623,-0.209 0,0 0.095,0.02 0.187,0.035 -0.068,-0.124 -0.138,-0.235 -0.168,-0.242 l -0.599,0.067 -0.27,0.088 c -0.057,-0.043 -0.086,-0.337 -0.086,-0.337 0,-0.006 0.004,-0.239 0.004,-0.239 0,0.008 -0.009,-0.236 -0.009,-0.236 l 0.007,-0.35 0.139,-0.018 0.369,0.071 c -0.002,0 0.043,0.039 0.089,0.076 -0.087,-0.136 -0.206,-0.303 -0.273,-0.334 -0.004,0 -0.257,-0.12 -0.257,-0.12 -0.03,-0.041 -0.065,-0.872 -0.065,-0.872 0.028,-0.048 0.184,-0.145 0.184,-0.145 0.248,-0.14 0.767,-0.365 0.973,-0.237 l 0.105,0.068 c 0.214,0.128 0.477,0.282 0.477,0.527 0,0.024 -0.002,0.048 -0.007,0.07 -0.024,0.135 -0.036,0.258 -0.036,0.366 0,0.253 0.063,0.436 0.191,0.555 0.209,0.189 0.416,0.193 0.427,0.193 h 0.032 c -0.008,-0.009 -0.02,-0.026 -0.02,-0.026 0.019,0.015 -0.179,-0.322 -0.179,-0.322 l 0.015,-0.432 c 0.153,-0.281 0.258,-0.311 0.381,-0.35 0.206,-0.067 0.487,-0.083 0.713,0.056 0.111,0.07 0.176,0.202 0.19,0.376 l 0.254,1.233 c 0.003,0.014 0.05,0.184 0.05,0.184 0.012,0.053 0.066,0.265 0.066,0.265 0.056,0.149 0.045,0.202 -0.13,0.307 -0.287,0.177 -0.535,0.228 -0.715,0.157 0,0 -0.128,-0.079 -0.241,-0.147 0.061,0.146 0.158,0.38 0.158,0.38 0.002,0.002 0.063,0.08 0.063,0.08 0.1,0.137 0.159,0.197 0.45,0.181 0.172,-0.01 0.224,0.043 0.234,0.061 0.004,0.006 0.004,0.011 0.004,0.021 0,0.071 -0.074,0.144 -0.221,0.185 l -0.212,0.06 c -0.008,0.004 -0.577,0.108 -0.577,0.108 -0.291,0 -0.564,0.305 -0.583,0.506 0,10e-4 -0.008,0.092 -0.014,0.178 0.093,-0.063 0.248,-0.159 0.248,-0.159 0.146,-0.124 0.346,-0.132 0.42,-0.109 l 0.06,0.021 -0.074,0.136 c -0.077,0.134 -0.256,0.43 -0.256,0.669 l 0.012,0.101 c 0.066,0.213 0.3,0.372 0.41,0.443 0,-0.122 -0.003,-0.308 -0.003,-0.308 0.11,-0.315 0.419,-0.886 0.592,-0.868 0.097,0.042 0.12,0.32 0.12,0.548 0,0.096 -0.004,0.185 -0.01,0.244 0,0 0,0.024 -0.002,0.037 0.009,-0.008 0.026,-0.02 0.026,-0.02 0.037,-0.027 0.297,-0.254 0.342,-0.393 0,-0.002 0.034,-0.149 0.034,-0.149 0.036,-0.154 0.065,-0.289 0.223,-0.289 l 0.113,0.002 c 0.174,0.007 0.351,0.014 0.565,-0.134 0.002,0 0.39,-0.42 0.39,-0.42 0.014,-0.022 0.116,-0.184 0.116,-0.184 0.111,-0.174 0.51,-0.552 0.658,-0.602 l 0.084,-0.026 c 0,0 -0.059,0.408 -0.089,0.591 0.132,-0.137 0.34,-0.402 0.34,-0.748 v -0.03 c -0.025,-0.532 -0.189,-0.708 -0.383,-0.867 -0.144,-0.119 -0.18,-0.671 -0.18,-1.094 0,-0.171 0.005,-0.314 0.013,-0.409 v -0.012 c 0,-0.195 -0.336,-0.413 -0.736,-0.657 -0.001,-0.005 -0.372,-0.263 -0.372,-0.263 -0.003,-0.006 -0.048,-0.133 -0.048,-0.133 -0.047,-0.119 -0.084,-0.223 -0.084,-0.298 0,-0.025 0.006,-0.047 0.015,-0.066 l 0.014,-0.026 0.088,-0.026 c 0.221,-0.014 0.72,0.032 0.754,0.058 l -0.004,-0.002 c 0,0 0.004,-0.002 0.008,-0.002 -0.004,-0.012 -0.008,-0.029 -0.008,-0.029 -0.004,-0.006 -0.108,-0.355 -0.455,-0.393 l -0.123,-0.019 c -0.356,-0.05 -0.84,-0.119 -1.121,0.04 -0.303,0.161 -0.764,0.318 -1.074,0.211 -0.212,-0.078 -0.348,-0.18 -0.348,-0.266 v -0.039 l 0.075,-0.052 c 0.181,-0.082 0.823,-0.082 0.827,-0.082 h 0.052 c -0.014,-0.011 -0.038,-0.031 -0.038,-0.031 -0.08,-0.061 -0.483,-0.346 -0.891,-0.325 -0.431,0.024 -0.668,0.082 -0.817,0.195 -0.003,0 -0.265,0.343 -0.265,0.343 -0.015,0.026 -0.325,0.406 -0.325,0.406 -0.002,0 -0.233,0.095 -0.233,0.095 -0.051,0.021 -0.1,0.038 -0.1,0.038 l -0.232,0.102 -0.3,0.293 -0.06,-0.068 -0.008,-0.452 0.008,-0.256 c 0,-0.001 0.07,-1.1 0.071,-1.112 -0.006,0.034 -0.383,-0.081 -0.383,-0.081 0,0 -0.352,0.14 -0.356,0.142 0.025,0.002 0.108,1.054 0.108,1.054 0,0.002 0.007,0.251 0.007,0.251 l -0.007,0.584 -0.188,-0.189 -0.172,-0.169 -0.224,-0.096 c -0.057,-0.02 -0.091,-0.031 -0.091,-0.031 l -0.255,-0.109 c 0,-10e-4 -0.309,-0.386 -0.309,-0.386 -0.011,-0.016 -0.273,-0.359 -0.273,-0.359 -0.152,-0.113 -0.393,-0.171 -0.823,-0.195 -0.404,-0.021 -0.813,0.264 -0.888,0.323 0,0 -0.025,0.02 -0.042,0.033 h 0.053 c 0.005,0 0.646,0 0.827,0.082 l 0.032,0.016 0.042,0.076 c -0.004,0.085 -0.14,0.191 -0.344,0.265 -0.307,0.107 -0.755,-0.042 -1.076,-0.211 -0.281,-0.159 -0.763,-0.09 -1.117,-0.041 -0.004,0.001 -0.125,0.02 -0.125,0.02 -0.346,0.038 -0.455,0.387 -0.455,0.391 0,0 -0.006,0.018 -0.008,0.027 0.01,0 0.029,-0.002 0.029,-0.002 0.008,-0.016 0.499,-0.064 0.725,-0.048 l 0.041,0.004 0.068,0.065 0.009,0.055 -0.085,0.294 -0.042,0.123 c -0.005,0.008 -0.282,0.185 -0.282,0.185 -0.305,0.162 -0.662,0.35 -0.662,0.553 0.004,0.048 0.005,0.092 0.005,0.092 0,0.388 -0.145,1.456 -0.335,1.613 -0.196,0.163 -0.362,0.339 -0.383,0.867 v 0.005 c 0,0.363 0.203,0.632 0.334,0.773 -0.023,-0.183 -0.085,-0.594 -0.085,-0.594 l 0.085,0.027 c 0.139,0.05 0.481,0.384 0.653,0.612 l 0.195,0.268 c 0.002,0.004 0.31,0.328 0.31,0.328 0.217,0.148 0.386,0.142 0.565,0.134 l 0.111,-0.002 c 0.161,0 0.191,0.129 0.225,0.29 l 0.037,0.152 c 0.042,0.131 0.293,0.357 0.332,0.383 0.004,0.002 0.022,0.018 0.036,0.027 -0.003,-0.014 -0.005,-0.038 -0.005,-0.038 -0.005,-0.061 -0.009,-0.158 -0.009,-0.26 0,-0.223 0.021,-0.489 0.106,-0.529 0.175,-0.019 0.484,0.513 0.605,0.865 0,0 0.002,0.189 0.002,0.308 0.112,-0.069 0.343,-0.23 0.407,-0.438 l 0.01,-0.106 c 0,-0.226 -0.154,-0.497 -0.248,-0.658 -0.005,-0.011 -0.08,-0.145 -0.08,-0.145 l 0.061,-0.023 c 0.072,-0.023 0.267,-0.019 0.42,0.109 10e-4,0.002 0.107,0.123 0.167,0.197 0.029,-0.038 0.067,-0.098 0.067,-0.182 0,-0.01 0,-0.022 -10e-4,-0.033 -0.023,-0.202 -0.292,-0.507 -0.583,-0.507 l -0.558,-0.101 c -0.018,-0.007 -0.232,-0.067 -0.232,-0.067 -0.152,-0.043 -0.228,-0.118 -0.228,-0.173 0,-0.005 0,-0.007 0.002,-0.012 0.019,-0.049 0.092,-0.091 0.244,-0.082 0.29,0.019 0.352,-0.044 0.452,-0.18 l 0.057,-0.079 c 0.003,-0.002 0.098,-0.228 0.161,-0.382 -0.111,0.07 -0.236,0.147 -0.236,0.147 -0.189,0.071 -0.43,0.02 -0.72,-0.16 -0.177,-0.102 -0.185,-0.157 -0.13,-0.302 0.006,-0.008 0.055,-0.214 0.055,-0.214 10e-4,-0.006 0.059,-0.225 0.059,-0.225 l 0.256,-1.247 c 0.011,-0.176 0.08,-0.305 0.193,-0.374 0.246,-0.155 0.48,-0.106 0.633,-0.073 0.186,0.046 0.299,0.073 0.459,0.369 l 0.026,0.395 -0.205,0.371 c 0.003,-0.004 0.003,-0.004 0.003,0 0,0 -0.008,0.008 -0.013,0.012 h 0.038 c 0.01,0 0.217,-0.004 0.431,-0.194 0.181,-0.174 0.231,-0.483 0.151,-0.92 -0.054,-0.291 0.239,-0.459 0.474,-0.597 -0.002,0 0.132,-0.073 0.132,-0.073 0.228,-0.153 0.91,0.225 0.939,0.241 0,0.001 0.162,0.098 0.162,0.098 0.006,0.016 0.01,0.078 0.01,0.162 0,0.257 -0.023,0.717 -0.023,0.717 -0.028,0.041 -0.28,0.161 -0.28,0.161 -0.067,0.031 -0.187,0.195 -0.275,0.331 0.042,-0.036 0.086,-0.075 0.086,-0.075 l 0.369,-0.069 c 0.072,0.011 0.092,0.013 0.092,0.013 0.049,0.054 0.054,0.355 0.054,0.355 l -0.005,0.243 v 0.228 c 0,0.002 -0.028,0.298 -0.028,0.298 -0.054,0.043 -0.328,-0.046 -0.328,-0.046 0.004,10e-4 -0.6,-0.066 -0.6,-0.066 -0.029,0.003 -0.093,0.105 -0.156,0.222 0.055,-0.017 0.114,-0.032 0.176,-0.015 0.593,0.194 0.646,0.214 0.646,0.253 v 0.004 c 0.005,-0.041 0.215,0.013 0.215,0.013 l 0.042,0.013 0.017,0.052 -0.025,0.486 -0.014,0.402 -0.067,0.454 c -0.025,0.053 -0.234,0.222 -0.234,0.222 l -0.215,0.136 c -0.311,0.196 -0.951,0.603 -0.951,1.442 0,0.709 0.399,1.156 0.635,1.358 0.012,0.07 -0.191,0.395 -0.191,0.395 -0.01,0.008 -0.729,0.468 -0.729,0.468 0,0.005 -0.184,0.375 -0.184,0.375 0,0.008 0.325,0.155 0.335,0.159 10e-4,-0.012 0.132,-0.063 0.132,-0.063 0.06,0.016 0.321,0.344 0.328,0.354 0.002,-0.028 0.408,-0.132 0.408,-0.132 0.049,0.019 0.339,0.314 0.347,0.324 0.004,-0.03 0.349,-0.175 0.349,-0.175 0.051,0.005 0.373,0.246 0.388,0.258" /><path
           id="path94"
           style="fill:none;stroke:#ffffff;stroke-width:0.55000001;stroke-linecap:butt;stroke-linejoin:miter;stroke-miterlimit:4;stroke-dasharray:none;stroke-opacity:1"
           d="m 317.18,447.527 c -0.122,-0.278 -0.207,-0.582 -0.207,-0.907 0,-0.113 0.009,-0.226 0.028,-0.341 0.223,-1.29 1.713,-2.358 4.398,-3.196 -0.933,-1.094 -2.951,-3.997 -2.951,-8.609 0,-3.171 0.961,-7.141 3.881,-11.875 0,-0.052 0.002,-0.126 0.002,-0.22 0,-1.274 -0.168,-6.228 -2.569,-11.845 -2.545,-5.96 -8.205,-13.905 -20.698,-17.988 -12.494,4.083 -18.154,12.028 -20.702,17.988 -2.401,5.621 -2.569,10.579 -2.569,11.848 0,0.093 0,0.165 0.002,0.217 2.924,4.737 3.885,8.71 3.885,11.88 0,4.608 -2.016,7.511 -2.946,8.604 2.686,0.836 4.172,1.906 4.393,3.195 0.021,0.116 0.03,0.228 0.03,0.34 0,0.326 -0.082,0.631 -0.205,0.909 6.763,-2.866 17.657,-2.719 18.156,-2.709 0.486,-0.01 11.317,-0.157 18.072,2.709 z" /></g></g></g></svg>